# xmcd CD database file
#
# Track frame offsets:
#	150
#	15225
#	34200
#	52125
#	69600
#	78600
#	97050
#	112275
#	127575
#	153600
#	166050
#	181050
#	196200
#
# Disc length: 2837 seconds
#
# Revision: 0
# Processed by: cddbd v1.5.2PL0 Copyright (c) Steve Scherf et al.
# Submitted via: CDex 1.51
#
DISCID=a90b130d
DTITLE=Akira Matsuo Trio - Alone Together
DYEAR=2007
DGENRE=Jazz
TTITLE0=Hank's Mood
TTITLE1=Alone Together
TTITLE2=No Bass
TTITLE3=Tennessee Waltz
TTITLE4=Transient Ischemic Attack
TTITLE5=Dance Me To The End Of Love
TTITLE6=Take Me In Your Arms
TTITLE7=Autumn Leaves
TTITLE8=Tres Palabras (Without You)
TTITLE9=Tico Tico
TTITLE10=Bye Bye Blackbird
TTITLE11=Sonora
TTITLE12=Alone Together (Another Take)
EXTD=YEAR: 2007
EXTT0=
EXTT1=
EXTT2=
EXTT3=
EXTT4=
EXTT5=
EXTT6=
EXTT7=
EXTT8=
EXTT9=
EXTT10=
EXTT11=
EXTT12=
PLAYORDER=
